<?xml version="1.0" encoding="UTF-8"?>
<svg id="Layer_2" data-name="Layer 2" xmlns="http://www.w3.org/2000/svg" viewBox="0 0 113.86 169.23">
  <defs>
    <style>
      .cls-1 {
        fill: #377dff;
      }
    </style>
  </defs>
  <g id="Layer_1-2" data-name="Layer 1">
    <g id="Layer_1-2" data-name="Layer 1-2">
      <g>
        <path class="cls-1" d="M75.79,99.65c-.69.82-1.41,1.68-2.1,2.63l-.77,1.07,8.17,9.39,1.25-1.04c13.46-11.21,16.52-29.4,7.8-46.34-.31-.6-1.35-2.5-2.46-4.26-1.99-3.18-2.93-4.07-4.17-3.95l-.48.04-22.04,16.82c-3.26-2.65-13.7-11.04-21.77-16.58l-.36-.25-.43-.04c-1.24-.11-2.17.9-3.57,2.93-.8,1.17-1.6,2.48-1.94,3.07-10.03,17.32-7.42,36.53,6.64,48.95l1.26,1.12,8.17-9.55-.87-1.07s-3.29-4.07-4.78-6.68c-3.59-6.29-4.17-13.84-1.64-19.81l19.26,15.24,19.25-15.24c2.48,5.86,1.96,13.31-1.48,19.53-.84,1.51-1.87,2.74-2.96,4.04h0Z"/>
        <path class="cls-1" d="M85.12,126.26c-7.28,4.3-15.63,6.58-24.14,6.58-26.22,0-47.54-21.33-47.54-47.54s21.33-47.54,47.54-47.54c8.51,0,16.86,2.28,24.14,6.58,7.08,4.18,12.99,10.16,17.09,17.28l11.64-6.7c-5.25-9.13-12.83-16.79-21.9-22.15-1.96-1.16-3.99-2.2-6.06-3.13V6.72c0-3.71-3.01-6.72-6.72-6.72s-6.72,3.01-6.72,6.72v18.69c-3.77-.72-7.61-1.09-11.48-1.09-4.54,0-8.97.5-13.23,1.45V6.72c0-3.71-3.01-6.72-6.72-6.72s-6.72,3.01-6.72,6.72v23.45c0,.1,0,.19,0,.29C14.02,40.37,0,61.23,0,85.3s14.02,44.92,34.31,54.83v22.39c0,3.71,3.01,6.72,6.72,6.72s6.72-3.01,6.72-6.72v-17.7c4.26.95,8.69,1.45,13.23,1.45,3.87,0,7.71-.37,11.48-1.09v17.34c0,3.71,3.01,6.72,6.72,6.72s6.72-3.01,6.72-6.72v-21.56c2.07-.93,4.1-1.97,6.06-3.13,9.07-5.36,16.64-13.02,21.9-22.15l-11.64-6.7c-4.1,7.12-10.01,13.1-17.09,17.29h0Z"/>
      </g>
    </g>
  </g>
</svg>