<?xml version="1.0" encoding="UTF-8"?>
<svg id="Layer_2" data-name="Layer 2" xmlns="http://www.w3.org/2000/svg" viewBox="0 0 615.55 175.16">
  <defs>
    <style>
      .cls-1 {
        fill: #377dff;
      }

      .cls-2 {
        fill: #0943ba;
      }
    </style>
  </defs>
  <g id="Layer_1-2" data-name="Layer 1">
    <g>
      <g>
        <g>
          <path class="cls-2" d="M144.69,99.63c-1.58.69-3.16,1.26-4.69,1.68-1.5.41-3.22.62-5.11.62-4.07,0-7.02-1.21-9.04-3.7-2.03-2.51-3.07-5.78-3.07-9.71s1.05-7.19,3.12-9.7c2.05-2.49,5.05-3.71,9.16-3.71,1.85,0,3.55.22,5.07.65,1.56.44,3.09,1,4.55,1.65l1.17.52,1.05-9.19-.59-.29c-1.4-.7-3.06-1.3-4.91-1.79-1.88-.49-3.99-.75-6.28-.75-6.49,0-11.93,2.08-16.16,6.19-4.24,4.11-6.39,9.64-6.39,16.42s2.09,12.3,6.2,16.41c4.11,4.11,9.53,6.2,16.11,6.2,2.08,0,4.12-.23,6.05-.68,1.92-.45,3.73-1.07,5.37-1.85l.61-.29-1.06-9.19-1.16.51Z"/>
          <path class="cls-2" d="M180.65,88.15c1.42-1.96,2.14-4.6,2.14-7.84,0-4.57-1.44-8.02-4.29-10.26-2.78-2.19-6.48-3.3-11-3.3h-16.18v43.55h9.5v-15.48h6.23l8.04,15.48h10.65l-9.7-18.06c1.85-1.05,3.4-2.42,4.61-4.09ZM160.82,74.99h4.96c2.71,0,4.6.5,5.63,1.49,1.03,1,1.53,2.38,1.53,4.24,0,1.71-.52,3.09-1.59,4.21-1.04,1.09-3.02,1.64-5.87,1.64h-4.66v-11.58Z"/>
          <polygon class="cls-2" points="202.22 83.74 192.65 66.74 182.12 66.74 197.47 92.76 197.47 110.3 206.97 110.3 206.97 92.76 222.32 66.74 211.79 66.74 202.22 83.74"/>
          <path class="cls-2" d="M251.24,70.21c-2.7-2.3-6.61-3.47-11.62-3.47h-15.76v43.55h9.5v-14.47h6.45c4.94,0,8.8-1.21,11.49-3.6,2.72-2.42,4.1-6.15,4.1-11.09s-1.39-8.58-4.14-10.93ZM233.35,74.99h5.37c2.41,0,4.22.5,5.37,1.5,1.11.96,1.67,2.57,1.67,4.77s-.56,3.83-1.65,4.81c-1.13,1.01-2.88,1.52-5.21,1.52h-5.55v-12.59Z"/>
          <polygon class="cls-2" points="255.64 76 267.43 76 267.43 110.3 276.93 110.3 276.93 76 288.72 76 288.72 66.74 255.64 66.74 255.64 76"/>
          <path class="cls-2" d="M325.93,72.11c-4.04-4.12-9.22-6.21-15.41-6.21s-11.37,2.09-15.41,6.21c-4.03,4.11-6.07,9.63-6.07,16.4s2.04,12.29,6.07,16.41c4.03,4.12,9.22,6.21,15.41,6.21s11.37-2.09,15.41-6.21c4.03-4.11,6.07-9.63,6.07-16.41s-2.04-12.29-6.07-16.41ZM319.19,98.18c-1.93,2.48-4.77,3.69-8.67,3.69s-6.73-1.21-8.67-3.69c-1.96-2.52-2.96-5.77-2.96-9.66s1-7.15,2.96-9.66c1.93-2.48,4.77-3.69,8.67-3.69s6.73,1.21,8.67,3.69c1.96,2.52,2.96,5.77,2.96,9.66s-1,7.15-2.96,9.66Z"/>
        </g>
        <g>
          <polygon class="cls-1" points="368.38 66.74 358.82 84.68 349.2 66.74 341.57 66.74 335.54 110.3 345.36 110.3 348.66 84.4 358.83 102.53 368.93 84.38 372.23 110.3 382.05 110.3 376.01 66.74 368.38 66.74"/>
          <path class="cls-1" d="M405.86,65.91c-6.19,0-11.37,2.09-15.41,6.21-4.03,4.11-6.07,9.63-6.07,16.4s2.04,12.29,6.07,16.41c4.03,4.12,9.22,6.21,15.41,6.21s11.37-2.09,15.41-6.21c4.03-4.11,6.07-9.63,6.07-16.41s-2.04-12.29-6.07-16.41c-4.04-4.12-9.22-6.21-15.41-6.21ZM414.53,98.18c-1.93,2.48-4.77,3.69-8.67,3.69s-6.73-1.21-8.67-3.69c-1.96-2.52-2.96-5.77-2.96-9.66s1-7.15,2.96-9.66c1.93-2.48,4.77-3.69,8.67-3.69s6.73,1.21,8.67,3.69c1.96,2.52,2.96,5.77,2.96,9.66s-1,7.15-2.96,9.66Z"/>
          <polygon class="cls-1" points="457.44 91.48 441.08 66.74 432.13 66.74 432.13 110.3 441.63 110.3 441.63 83.88 459.24 110.3 466.94 110.3 466.94 66.74 457.44 66.74 457.44 91.48"/>
          <path class="cls-1" d="M506.15,72.51c-4.03-3.83-9.21-5.76-15.38-5.76h-16.54v43.55h16.54c6.18,0,11.35-1.94,15.38-5.76,4.05-3.84,6.1-9.23,6.1-16.01s-2.05-12.17-6.1-16.01ZM499.18,98.23c-1.88,2.29-4.63,3.41-8.41,3.41h-7.04v-26.23h7.04c3.79,0,6.54,1.11,8.41,3.41,1.89,2.32,2.85,5.58,2.85,9.71s-.96,7.39-2.85,9.71Z"/>
          <path class="cls-1" d="M527.08,66.74l-15.49,43.55h9.38l3.47-9.88h13.82l3.47,9.88h9.38l-15.49-43.55h-8.53ZM527.44,91.87l3.91-11.12,3.91,11.12h-7.81Z"/>
          <polygon class="cls-1" points="573.69 66.74 564.12 83.74 554.55 66.74 544.02 66.74 559.37 92.76 559.37 110.3 568.87 110.3 568.87 92.76 584.22 66.74 573.69 66.74"/>
          <path class="cls-1" d="M611.69,89.08c-2.43-1.99-6-3.74-10.61-5.2-2.56-.81-4.58-1.61-6.01-2.38-1.18-.63-1.74-1.58-1.74-2.98,0-1.14.43-1.94,1.36-2.5,1.06-.64,2.63-.97,4.66-.97s4.03.27,6.01.8c2.01.54,4.19,1.33,6.47,2.33l1.18.52.97-9.78-.64-.27c-1.66-.69-3.69-1.33-6.03-1.89-2.36-.57-4.88-.86-7.48-.86-5.25,0-9.29,1.21-11.99,3.6-2.74,2.42-4.13,5.53-4.13,9.25s1.26,6.67,3.73,8.57c2.31,1.78,5.22,3.28,8.63,4.46,3.26,1.13,5.69,2.13,7.2,2.97,1.28.71,1.87,1.76,1.87,3.29,0,1.32-.45,2.22-1.42,2.84-1.07.69-2.54,1.04-4.37,1.04-2.31,0-4.62-.37-6.85-1.11-2.3-.76-4.5-1.64-6.56-2.61l-1.19-.56-1.11,10.05.58.29c1.42.71,3.45,1.4,6.2,2.09,2.72.69,5.42,1.04,8.03,1.04,4.9,0,8.49-.72,10.96-2.19,2.48-1.47,4.14-3.27,4.95-5.35.77-1.99,1.17-3.85,1.17-5.55,0-3.85-1.3-6.87-3.86-8.97Z"/>
        </g>
      </g>
      <g id="Layer_1-2" data-name="Layer 1-2">
        <g>
          <path class="cls-1" d="M78.45,103.14c-.72.85-1.46,1.74-2.17,2.72l-.8,1.1,8.46,9.71,1.29-1.08c13.93-11.6,17.1-30.43,8.08-47.97-.32-.62-1.4-2.59-2.54-4.41-2.06-3.29-3.03-4.21-4.31-4.09l-.49.04-22.81,17.41c-3.38-2.74-14.18-11.43-22.53-17.16l-.37-.26-.45-.04c-1.28-.11-2.25.93-3.69,3.03-.83,1.21-1.65,2.57-2.01,3.18-10.38,17.92-7.68,37.81,6.88,50.66l1.31,1.16,8.45-9.89-.9-1.11s-3.41-4.21-4.95-6.91c-3.71-6.51-4.31-14.33-1.69-20.5l19.93,15.77,19.93-15.77c2.57,6.07,2.03,13.78-1.54,20.21-.87,1.57-1.94,2.84-3.07,4.18h0Z"/>
          <path class="cls-1" d="M88.1,130.68c-7.54,4.45-16.18,6.81-24.99,6.81-27.13,0-49.21-22.08-49.21-49.21s22.08-49.2,49.21-49.2c8.81,0,17.45,2.36,24.99,6.81,7.33,4.33,13.44,10.51,17.69,17.89l12.05-6.94c-5.44-9.45-13.28-17.38-22.67-22.92-2.03-1.2-4.13-2.28-6.28-3.24V6.95c0-3.84-3.11-6.95-6.95-6.95s-6.95,3.11-6.95,6.95v19.34c-3.9-.75-7.88-1.13-11.88-1.13-4.7,0-9.28.52-13.69,1.5V6.95c0-3.84-3.11-6.95-6.95-6.95s-6.95,3.11-6.95,6.95v24.27c0,.1,0,.2,0,.3C14.51,41.78,0,63.37,0,88.28s14.51,46.5,35.52,56.75v23.18c0,3.84,3.11,6.95,6.95,6.95s6.95-3.11,6.95-6.95v-18.32c4.41.98,8.99,1.5,13.69,1.5,4,0,7.98-.38,11.88-1.13v17.94c0,3.84,3.11,6.95,6.95,6.95s6.95-3.11,6.95-6.95v-22.31c2.15-.96,4.24-2.04,6.28-3.24,9.39-5.55,17.23-13.47,22.67-22.92l-12.05-6.94c-4.25,7.37-10.36,13.56-17.69,17.89h0Z"/>
        </g>
      </g>
    </g>
  </g>
</svg>