<?xml version="1.0" encoding="UTF-8"?>
<svg id="Layer_1" data-name="Layer 1" xmlns="http://www.w3.org/2000/svg" viewBox="0 0 432 216">
  <defs>
    <style>
      .cls-1 {
        fill: #231f20;
      }

      .cls-2 {
        fill: #fff;
      }
    </style>
  </defs>
  <rect class="cls-1" y="0" width="432" height="216"/>
  <g>
    <g>
      <g>
        <path class="cls-2" d="M113.75,115.55c-.99.44-1.98.79-2.94,1.05-.94.26-2.02.39-3.2.39-2.55,0-4.4-.76-5.66-2.32-1.28-1.58-1.92-3.62-1.92-6.09s.66-4.51,1.96-6.08c1.29-1.56,3.17-2.32,5.74-2.32,1.16,0,2.23.14,3.18.41.98.28,1.93.63,2.85,1.04l.73.33.66-5.76-.37-.18c-.88-.44-1.92-.82-3.08-1.13-1.18-.31-2.5-.47-3.94-.47-4.07,0-7.48,1.31-10.13,3.88-2.66,2.58-4,6.04-4,10.3s1.31,7.71,3.89,10.29c2.58,2.58,5.98,3.89,10.1,3.89,1.31,0,2.58-.14,3.79-.43,1.2-.28,2.34-.67,3.37-1.16l.38-.18-.66-5.76-.73.32Z"/>
        <path class="cls-2" d="M136.3,108.35c.89-1.23,1.34-2.88,1.34-4.92,0-2.86-.9-5.03-2.69-6.43-1.74-1.37-4.06-2.07-6.9-2.07h-10.14v27.31h5.95v-9.71h3.91l5.04,9.71h6.68l-6.08-11.32c1.16-.66,2.13-1.52,2.89-2.57ZM123.87,100.11h3.11c1.7,0,2.89.31,3.53.94.65.62.96,1.49.96,2.66,0,1.07-.33,1.93-.99,2.64-.65.68-1.89,1.03-3.68,1.03h-2.92v-7.26Z"/>
        <polygon class="cls-2" points="149.83 105.59 143.82 94.94 137.22 94.94 146.85 111.25 146.85 122.24 152.8 122.24 152.8 111.25 162.43 94.94 155.83 94.94 149.83 105.59"/>
        <path class="cls-2" d="M180.55,97.11c-1.69-1.44-4.15-2.17-7.29-2.17h-9.88v27.31h5.95v-9.07h4.04c3.1,0,5.52-.76,7.2-2.26,1.7-1.52,2.57-3.85,2.57-6.95s-.87-5.38-2.6-6.85ZM169.34,100.11h3.37c1.51,0,2.65.32,3.37.94.7.6,1.05,1.61,1.05,2.99s-.35,2.4-1.04,3.01c-.71.63-1.81.95-3.27.95h-3.48v-7.89Z"/>
        <polygon class="cls-2" points="183.32 100.74 190.71 100.74 190.71 122.24 196.66 122.24 196.66 100.74 204.05 100.74 204.05 94.94 183.32 94.94 183.32 100.74"/>
        <path class="cls-2" d="M227.38,98.3c-2.53-2.58-5.78-3.89-9.66-3.89s-7.13,1.31-9.66,3.89c-2.53,2.58-3.81,6.04-3.81,10.28s1.28,7.71,3.81,10.28c2.53,2.58,5.78,3.89,9.66,3.89s7.13-1.31,9.66-3.89c2.53-2.58,3.81-6.04,3.81-10.28s-1.28-7.71-3.81-10.28ZM223.16,114.65c-1.21,1.56-2.99,2.31-5.43,2.31s-4.22-.76-5.43-2.31c-1.23-1.58-1.85-3.62-1.85-6.06s.62-4.48,1.85-6.06c1.21-1.56,2.99-2.31,5.43-2.31s4.22.76,5.43,2.31c1.23,1.58,1.85,3.62,1.85,6.06s-.62,4.48-1.85,6.06Z"/>
      </g>
      <g>
        <polygon class="cls-2" points="254 94.94 248 106.18 241.97 94.94 237.19 94.94 233.41 122.24 239.56 122.24 241.63 106.01 248.01 117.37 254.34 105.99 256.41 122.24 262.57 122.24 258.78 94.94 254 94.94"/>
        <path class="cls-2" d="M277.49,94.41c-3.88,0-7.13,1.31-9.66,3.89-2.53,2.58-3.81,6.04-3.81,10.28s1.28,7.71,3.81,10.28c2.53,2.58,5.78,3.89,9.66,3.89s7.13-1.31,9.66-3.89c2.53-2.58,3.81-6.04,3.81-10.28s-1.28-7.71-3.81-10.28c-2.53-2.58-5.78-3.89-9.66-3.89ZM282.93,114.65c-1.21,1.56-2.99,2.31-5.43,2.31s-4.22-.76-5.43-2.31c-1.23-1.58-1.85-3.62-1.85-6.06s.62-4.48,1.85-6.06c1.21-1.56,2.99-2.31,5.43-2.31s4.22.76,5.43,2.31c1.23,1.58,1.85,3.62,1.85,6.06s-.62,4.48-1.85,6.06Z"/>
        <polygon class="cls-2" points="309.83 110.44 299.57 94.94 293.96 94.94 293.96 122.24 299.92 122.24 299.92 105.68 310.96 122.24 315.78 122.24 315.78 94.94 309.83 94.94 309.83 110.44"/>
        <path class="cls-2" d="M340.37,98.55c-2.53-2.4-5.77-3.61-9.64-3.61h-10.37v27.31h10.37c3.87,0,7.12-1.22,9.64-3.61,2.54-2.41,3.82-5.78,3.82-10.04s-1.29-7.63-3.82-10.04ZM336,114.67c-1.18,1.44-2.9,2.14-5.27,2.14h-4.41v-16.44h4.41c2.37,0,4.1.7,5.27,2.14,1.19,1.45,1.79,3.5,1.79,6.09s-.6,4.63-1.79,6.09Z"/>
        <path class="cls-2" d="M353.49,94.94l-9.71,27.31h5.88l2.18-6.2h8.66l2.18,6.2h5.88l-9.71-27.31h-5.35ZM353.71,110.69l2.45-6.97,2.45,6.97h-4.9Z"/>
        <polygon class="cls-2" points="382.71 94.94 376.71 105.59 370.71 94.94 364.11 94.94 373.73 111.25 373.73 122.24 379.69 122.24 379.69 111.25 389.31 94.94 382.71 94.94"/>
        <path class="cls-2" d="M406.54,108.94c-1.52-1.25-3.76-2.35-6.65-3.26-1.6-.51-2.87-1.01-3.77-1.49-.74-.4-1.09-.99-1.09-1.87,0-.72.27-1.21.86-1.57.66-.4,1.65-.61,2.92-.61s2.53.17,3.77.5c1.26.34,2.63.83,4.06,1.46l.74.33.61-6.13-.4-.17c-1.04-.43-2.32-.83-3.78-1.19-1.48-.36-3.06-.54-4.69-.54-3.29,0-5.82.76-7.52,2.26-1.72,1.52-2.59,3.47-2.59,5.8s.79,4.18,2.34,5.37c1.45,1.12,3.27,2.06,5.41,2.8,2.05.71,3.57,1.33,4.52,1.86.8.45,1.17,1.1,1.17,2.06,0,.83-.28,1.39-.89,1.78-.67.43-1.59.65-2.74.65-1.45,0-2.89-.23-4.3-.7-1.44-.48-2.82-1.03-4.11-1.63l-.74-.35-.7,6.3.37.18c.89.45,2.16.88,3.89,1.31,1.71.43,3.4.65,5.03.65,3.07,0,5.32-.45,6.87-1.37,1.55-.92,2.6-2.05,3.1-3.35.48-1.24.73-2.42.73-3.48,0-2.41-.81-4.31-2.42-5.62Z"/>
      </g>
    </g>
    <g id="Layer_1-2" data-name="Layer 1-2">
      <g>
        <path class="cls-2" d="M72.23,117.75c-.45.53-.91,1.09-1.36,1.71l-.5.69,5.3,6.09.81-.67c8.73-7.27,10.72-19.08,5.06-30.07-.2-.39-.88-1.62-1.59-2.77-1.29-2.06-1.9-2.64-2.7-2.57l-.31.03-14.3,10.92c-2.12-1.72-8.89-7.16-14.13-10.76l-.23-.16-.28-.03c-.8-.07-1.41.58-2.31,1.9-.52.76-1.04,1.61-1.26,1.99-6.51,11.24-4.82,23.7,4.31,31.76l.82.72,5.3-6.2-.56-.69s-2.14-2.64-3.1-4.33c-2.33-4.08-2.7-8.98-1.06-12.85l12.5,9.89,12.49-9.89c1.61,3.8,1.27,8.64-.96,12.67-.54.98-1.22,1.78-1.92,2.62h0Z"/>
        <path class="cls-2" d="M78.28,135.02c-4.73,2.79-10.14,4.27-15.67,4.27-17.01,0-30.85-13.84-30.85-30.85s13.84-30.85,30.85-30.85c5.52,0,10.94,1.48,15.67,4.27,4.59,2.71,8.43,6.59,11.09,11.21l7.56-4.35c-3.41-5.92-8.32-10.89-14.21-14.37-1.27-.75-2.59-1.43-3.93-2.03v-14.87c0-2.41-1.95-4.36-4.36-4.36s-4.36,1.95-4.36,4.36v12.13c-2.44-.47-4.94-.71-7.45-.71-2.95,0-5.82.33-8.58.94v-12.36c0-2.41-1.95-4.36-4.36-4.36s-4.36,1.95-4.36,4.36v15.22c0,.06,0,.13,0,.19-13.17,6.43-22.27,19.96-22.27,35.58s9.1,29.15,22.27,35.58v14.53c0,2.41,1.95,4.36,4.36,4.36s4.36-1.95,4.36-4.36v-11.48c2.77.61,5.64.94,8.58.94,2.51,0,5.01-.24,7.45-.71v11.25c0,2.41,1.95,4.36,4.36,4.36s4.36-1.95,4.36-4.36v-13.99c1.35-.6,2.66-1.28,3.93-2.03,5.89-3.48,10.8-8.45,14.21-14.37l-7.56-4.35c-2.66,4.62-6.5,8.5-11.09,11.22h0Z"/>
      </g>
    </g>
  </g>
</svg>